<svg width="1997" height="987" xmlns="http://www.w3.org/2000/svg" xmlns:xlink="http://www.w3.org/1999/xlink" xml:space="preserve" overflow="hidden"><defs><filter id="fx0" x="-10%" y="-10%" width="120%" height="120%" filterUnits="userSpaceOnUse" primitiveUnits="userSpaceOnUse"><feComponentTransfer color-interpolation-filters="sRGB"><feFuncR type="discrete" tableValues="0 0"/><feFuncG type="discrete" tableValues="0 0"/><feFuncB type="discrete" tableValues="0 0"/><feFuncA type="linear" slope="0.631373" intercept="0"/></feComponentTransfer><feGaussianBlur stdDeviation="6.875 6.875"/></filter><filter id="fx1" x="-10%" y="-10%" width="120%" height="120%" filterUnits="userSpaceOnUse" primitiveUnits="userSpaceOnUse"><feComponentTransfer color-interpolation-filters="sRGB"><feFuncR type="discrete" tableValues="0 0"/><feFuncG type="discrete" tableValues="0 0"/><feFuncB type="discrete" tableValues="0 0"/><feFuncA type="linear" slope="0.631373" intercept="0"/></feComponentTransfer><feGaussianBlur stdDeviation="6.875 6.875"/></filter><filter id="fx2" x="-10%" y="-10%" width="120%" height="120%" filterUnits="userSpaceOnUse" primitiveUnits="userSpaceOnUse"><feComponentTransfer color-interpolation-filters="sRGB"><feFuncR type="discrete" tableValues="0 0"/><feFuncG type="discrete" tableValues="0 0"/><feFuncB type="discrete" tableValues="0 0"/><feFuncA type="linear" slope="0.631373" intercept="0"/></feComponentTransfer><feGaussianBlur stdDeviation="6.875 6.875"/></filter><filter id="fx3" x="-10%" y="-10%" width="120%" height="120%" filterUnits="userSpaceOnUse" primitiveUnits="userSpaceOnUse"><feComponentTransfer color-interpolation-filters="sRGB"><feFuncR type="discrete" tableValues="0 0"/><feFuncG type="discrete" tableValues="0 0"/><feFuncB type="discrete" tableValues="0 0"/><feFuncA type="linear" slope="0.631373" intercept="0"/></feComponentTransfer><feGaussianBlur stdDeviation="6.875 6.875"/></filter><filter id="fx4" x="-10%" y="-10%" width="120%" height="120%" filterUnits="userSpaceOnUse" primitiveUnits="userSpaceOnUse"><feComponentTransfer color-interpolation-filters="sRGB"><feFuncR type="discrete" tableValues="0 0"/><feFuncG type="discrete" tableValues="0 0"/><feFuncB type="discrete" tableValues="0 0"/><feFuncA type="linear" slope="0.631373" intercept="0"/></feComponentTransfer><feGaussianBlur stdDeviation="6.875 6.875"/></filter><filter id="fx5" x="-10%" y="-10%" width="120%" height="120%" filterUnits="userSpaceOnUse" primitiveUnits="userSpaceOnUse"><feComponentTransfer color-interpolation-filters="sRGB"><feFuncR type="discrete" tableValues="0 0"/><feFuncG type="discrete" tableValues="0 0"/><feFuncB type="discrete" tableValues="0 0"/><feFuncA type="linear" slope="0.631373" intercept="0"/></feComponentTransfer><feGaussianBlur stdDeviation="6.875 6.875"/></filter><filter id="fx6" x="-10%" y="-10%" width="120%" height="120%" filterUnits="userSpaceOnUse" primitiveUnits="userSpaceOnUse"><feComponentTransfer color-interpolation-filters="sRGB"><feFuncR type="discrete" tableValues="0 0"/><feFuncG type="discrete" tableValues="0 0"/><feFuncB type="discrete" tableValues="0 0"/><feFuncA type="linear" slope="0.631373" intercept="0"/></feComponentTransfer><feGaussianBlur stdDeviation="6.875 6.875"/></filter><filter id="fx7" x="-10%" y="-10%" width="120%" height="120%" filterUnits="userSpaceOnUse" primitiveUnits="userSpaceOnUse"><feComponentTransfer color-interpolation-filters="sRGB"><feFuncR type="discrete" tableValues="0 0"/><feFuncG type="discrete" tableValues="0 0"/><feFuncB type="discrete" tableValues="0 0"/><feFuncA type="linear" slope="0.631373" intercept="0"/></feComponentTransfer><feGaussianBlur stdDeviation="6.875 6.875"/></filter><filter id="fx8" x="-10%" y="-10%" width="120%" height="120%" filterUnits="userSpaceOnUse" primitiveUnits="userSpaceOnUse"><feComponentTransfer color-interpolation-filters="sRGB"><feFuncR type="discrete" tableValues="0 0"/><feFuncG type="discrete" tableValues="0 0"/><feFuncB type="discrete" tableValues="0 0"/><feFuncA type="linear" slope="0.631373" intercept="0"/></feComponentTransfer><feGaussianBlur stdDeviation="6.875 6.875"/></filter><filter id="fx9" x="-10%" y="-10%" width="120%" height="120%" filterUnits="userSpaceOnUse" primitiveUnits="userSpaceOnUse"><feComponentTransfer color-interpolation-filters="sRGB"><feFuncR type="discrete" tableValues="0 0"/><feFuncG type="discrete" tableValues="0 0"/><feFuncB type="discrete" tableValues="0 0"/><feFuncA type="linear" slope="0.631373" intercept="0"/></feComponentTransfer><feGaussianBlur stdDeviation="6.875 6.875"/></filter><filter id="fx10" x="-10%" y="-10%" width="120%" height="120%" filterUnits="userSpaceOnUse" primitiveUnits="userSpaceOnUse"><feComponentTransfer color-interpolation-filters="sRGB"><feFuncR type="discrete" tableValues="0 0"/><feFuncG type="discrete" tableValues="0 0"/><feFuncB type="discrete" tableValues="0 0"/><feFuncA type="linear" slope="0.631373" intercept="0"/></feComponentTransfer><feGaussianBlur stdDeviation="6.875 6.875"/></filter><clipPath id="clip11"><rect x="-1" y="-1" width="1997" height="987"/></clipPath><linearGradient x1="997" y1="0" x2="997" y2="984" gradientUnits="userSpaceOnUse" spreadMethod="reflect" id="fill12"><stop offset="0" stop-color="#FFFFFF"/><stop offset="0.0183784" stop-color="#FEFEFE"/><stop offset="0.0367568" stop-color="#FEFEFE"/><stop offset="0.0551351" stop-color="#FEFEFE"/><stop offset="0.0735135" stop-color="#FEFEFE"/><stop offset="0.0918919" stop-color="#FEFEFE"/><stop offset="0.11027" stop-color="#FDFDFD"/><stop offset="0.128649" stop-color="#FDFDFD"/><stop offset="0.147027" stop-color="#FCFCFC"/><stop offset="0.165405" stop-color="#FCFCFC"/><stop offset="0.183784" stop-color="#FBFBFB"/><stop offset="0.202162" stop-color="#FBFBFB"/><stop offset="0.220541" stop-color="#FAFAFA"/><stop offset="0.238919" stop-color="#F9F9F9"/><stop offset="0.257297" stop-color="#F8F8F8"/><stop offset="0.275676" stop-color="#F8F8F8"/><stop offset="0.294054" stop-color="#F7F7F7"/><stop offset="0.312432" stop-color="#F6F6F6"/><stop offset="0.330811" stop-color="#F5F5F5"/><stop offset="0.349189" stop-color="#F4F4F4"/><stop offset="0.367568" stop-color="#F3F3F3"/><stop offset="0.385946" stop-color="#F1F1F1"/><stop offset="0.404324" stop-color="#F0F0F0"/><stop offset="0.422703" stop-color="#EFEFEF"/><stop offset="0.441081" stop-color="#EEEEEE"/><stop offset="0.459459" stop-color="#ECECEC"/><stop offset="0.477838" stop-color="#EBEBEB"/><stop offset="0.496216" stop-color="#E9E9E9"/><stop offset="0.514595" stop-color="#E8E8E8"/><stop offset="0.532973" stop-color="#E6E6E6"/><stop offset="0.551351" stop-color="#E5E5E5"/><stop offset="0.56973" stop-color="#E3E3E3"/><stop offset="0.588108" stop-color="#E2E2E2"/><stop offset="0.606486" stop-color="#E0E0E0"/><stop offset="0.624865" stop-color="#DEDEDE"/><stop offset="0.643243" stop-color="#DCDCDC"/><stop offset="0.661622" stop-color="#DADADA"/><stop offset="0.68" stop-color="#D9D9D9"/><stop offset="0.688649" stop-color="#DADADA"/><stop offset="0.697297" stop-color="#DCDCDC"/><stop offset="0.705946" stop-color="#DEDEDE"/><stop offset="0.714595" stop-color="#E0E0E0"/><stop offset="0.723243" stop-color="#E2E2E2"/><stop offset="0.731892" stop-color="#E3E3E3"/><stop offset="0.740541" stop-color="#E5E5E5"/><stop offset="0.749189" stop-color="#E6E6E6"/><stop offset="0.757838" stop-color="#E8E8E8"/><stop offset="0.766487" stop-color="#E9E9E9"/><stop offset="0.775135" stop-color="#EBEBEB"/><stop offset="0.783784" stop-color="#ECECEC"/><stop offset="0.792432" stop-color="#EEEEEE"/><stop offset="0.801081" stop-color="#EFEFEF"/><stop offset="0.80973" stop-color="#F0F0F0"/><stop offset="0.818378" stop-color="#F1F1F1"/><stop offset="0.827027" stop-color="#F3F3F3"/><stop offset="0.835676" stop-color="#F4F4F4"/><stop offset="0.844324" stop-color="#F5F5F5"/><stop offset="0.852973" stop-color="#F6F6F6"/><stop offset="0.861622" stop-color="#F7F7F7"/><stop offset="0.87027" stop-color="#F8F8F8"/><stop offset="0.878919" stop-color="#F8F8F8"/><stop offset="0.887568" stop-color="#F9F9F9"/><stop offset="0.896216" stop-color="#FAFAFA"/><stop offset="0.904865" stop-color="#FBFBFB"/><stop offset="0.913514" stop-color="#FBFBFB"/><stop offset="0.922162" stop-color="#FCFCFC"/><stop offset="0.930811" stop-color="#FCFCFC"/><stop offset="0.939459" stop-color="#FDFDFD"/><stop offset="0.948108" stop-color="#FDFDFD"/><stop offset="0.956757" stop-color="#FEFEFE"/><stop offset="0.965405" stop-color="#FEFEFE"/><stop offset="0.974054" stop-color="#FEFEFE"/><stop offset="0.982703" stop-color="#FEFEFE"/><stop offset="0.991351" stop-color="#FEFEFE"/><stop offset="1" stop-color="#FFFFFF"/></linearGradient><clipPath id="clip13"><rect x="0" y="0" width="1993" height="984"/></clipPath><clipPath id="clip14"><rect x="717" y="129" width="928" height="764"/></clipPath><clipPath id="clip15"><rect x="-3" y="-3" width="903" height="81"/></clipPath><clipPath id="clip16"><rect x="0" y="0" width="899" height="76"/></clipPath><clipPath id="clip17"><rect x="717" y="129" width="928" height="764"/></clipPath><clipPath id="clip18"><rect x="-3" y="-3" width="766" height="81"/></clipPath><clipPath id="clip19"><rect x="0" y="0" width="760" height="77"/></clipPath><clipPath id="clip20"><rect x="717" y="129" width="928" height="764"/></clipPath><clipPath id="clip21"><rect x="-3" y="-3" width="674" height="81"/></clipPath><clipPath id="clip22"><rect x="0" y="0" width="667" height="76"/></clipPath><clipPath id="clip23"><rect x="717" y="129" width="928" height="764"/></clipPath><clipPath id="clip24"><rect x="-3" y="-3" width="232" height="81"/></clipPath><clipPath id="clip25"><rect x="0" y="0" width="228" height="76"/></clipPath><clipPath id="clip26"><rect x="717" y="129" width="928" height="764"/></clipPath><clipPath id="clip27"><rect x="-3" y="-3" width="210" height="81"/></clipPath><clipPath id="clip28"><rect x="0" y="0" width="205" height="76"/></clipPath><clipPath id="clip29"><rect x="717" y="129" width="928" height="764"/></clipPath><clipPath id="clip30"><rect x="-3" y="-3" width="210" height="81"/></clipPath><clipPath id="clip31"><rect x="0" y="0" width="205" height="76"/></clipPath><clipPath id="clip32"><rect x="717" y="129" width="928" height="764"/></clipPath><clipPath id="clip33"><rect x="-3" y="-3" width="188" height="81"/></clipPath><clipPath id="clip34"><rect x="0" y="0" width="182" height="76"/></clipPath><clipPath id="clip35"><rect x="717" y="129" width="928" height="764"/></clipPath><clipPath id="clip36"><rect x="-3" y="-3" width="188" height="81"/></clipPath><clipPath id="clip37"><rect x="0" y="0" width="182" height="77"/></clipPath><clipPath id="clip38"><rect x="717" y="129" width="928" height="764"/></clipPath><clipPath id="clip39"><rect x="-3" y="-3" width="188" height="81"/></clipPath><clipPath id="clip40"><rect x="0" y="0" width="182" height="76"/></clipPath><clipPath id="clip41"><rect x="717" y="129" width="928" height="764"/></clipPath><clipPath id="clip42"><rect x="-3" y="-3" width="166" height="81"/></clipPath><clipPath id="clip43"><rect x="0" y="0" width="159" height="76"/></clipPath><clipPath id="clip44"><rect x="717" y="129" width="928" height="764"/></clipPath><clipPath id="clip45"><rect x="-3" y="-3" width="166" height="81"/></clipPath><clipPath id="clip46"><rect x="0" y="0" width="159" height="76"/></clipPath><clipPath id="clip47"><rect x="717" y="129" width="928" height="764"/></clipPath><linearGradient x1="1145" y1="840" x2="1145" y2="872" gradientUnits="userSpaceOnUse" spreadMethod="reflect" id="fill48"><stop offset="0" stop-color="#6083CB"/><stop offset="0.5" stop-color="#3E70CA"/><stop offset="1" stop-color="#2E61BA"/></linearGradient><clipPath id="clip49"><rect x="717" y="129" width="928" height="764"/></clipPath><linearGradient x1="1075.5" y1="770" x2="1075.5" y2="803" gradientUnits="userSpaceOnUse" spreadMethod="reflect" id="fill50"><stop offset="0" stop-color="#6083CB"/><stop offset="0.5" stop-color="#3E70CA"/><stop offset="1" stop-color="#2E61BA"/></linearGradient><clipPath id="clip51"><rect x="717" y="129" width="928" height="764"/></clipPath><linearGradient x1="1029" y1="701" x2="1029" y2="733" gradientUnits="userSpaceOnUse" spreadMethod="reflect" id="fill52"><stop offset="0" stop-color="#6083CB"/><stop offset="0.5" stop-color="#3E70CA"/><stop offset="1" stop-color="#2E61BA"/></linearGradient><clipPath id="clip53"><rect x="717" y="129" width="928" height="764"/></clipPath><linearGradient x1="809.5" y1="632" x2="809.5" y2="664" gradientUnits="userSpaceOnUse" spreadMethod="reflect" id="fill54"><stop offset="0" stop-color="#6083CB"/><stop offset="0.5" stop-color="#3E70CA"/><stop offset="1" stop-color="#2E61BA"/></linearGradient><clipPath id="clip55"><rect x="717" y="129" width="928" height="764"/></clipPath><linearGradient x1="798" y1="563" x2="798" y2="595" gradientUnits="userSpaceOnUse" spreadMethod="reflect" id="fill56"><stop offset="0" stop-color="#6083CB"/><stop offset="0.5" stop-color="#3E70CA"/><stop offset="1" stop-color="#2E61BA"/></linearGradient><clipPath id="clip57"><rect x="717" y="129" width="928" height="764"/></clipPath><linearGradient x1="798" y1="494" x2="798" y2="526" gradientUnits="userSpaceOnUse" spreadMethod="reflect" id="fill58"><stop offset="0" stop-color="#6083CB"/><stop offset="0.5" stop-color="#3E70CA"/><stop offset="1" stop-color="#2E61BA"/></linearGradient><clipPath id="clip59"><rect x="717" y="129" width="928" height="764"/></clipPath><linearGradient x1="786.5" y1="425" x2="786.5" y2="457" gradientUnits="userSpaceOnUse" spreadMethod="reflect" id="fill60"><stop offset="0" stop-color="#6083CB"/><stop offset="0.5" stop-color="#3E70CA"/><stop offset="1" stop-color="#2E61BA"/></linearGradient><clipPath id="clip61"><rect x="717" y="129" width="928" height="764"/></clipPath><linearGradient x1="786.5" y1="355" x2="786.5" y2="388" gradientUnits="userSpaceOnUse" spreadMethod="reflect" id="fill62"><stop offset="0" stop-color="#6083CB"/><stop offset="0.5" stop-color="#3E70CA"/><stop offset="1" stop-color="#2E61BA"/></linearGradient><clipPath id="clip63"><rect x="717" y="129" width="928" height="764"/></clipPath><linearGradient x1="786.5" y1="286" x2="786.5" y2="318" gradientUnits="userSpaceOnUse" spreadMethod="reflect" id="fill64"><stop offset="0" stop-color="#6083CB"/><stop offset="0.5" stop-color="#3E70CA"/><stop offset="1" stop-color="#2E61BA"/></linearGradient><clipPath id="clip65"><rect x="717" y="129" width="928" height="764"/></clipPath><linearGradient x1="775" y1="217" x2="775" y2="249" gradientUnits="userSpaceOnUse" spreadMethod="reflect" id="fill66"><stop offset="0" stop-color="#6083CB"/><stop offset="0.5" stop-color="#3E70CA"/><stop offset="1" stop-color="#2E61BA"/></linearGradient><clipPath id="clip67"><rect x="717" y="129" width="928" height="764"/></clipPath><linearGradient x1="775" y1="148" x2="775" y2="180" gradientUnits="userSpaceOnUse" spreadMethod="reflect" id="fill68"><stop offset="0" stop-color="#6083CB"/><stop offset="0.5" stop-color="#3E70CA"/><stop offset="1" stop-color="#2E61BA"/></linearGradient><clipPath id="clip69"><rect x="0" y="0" width="1993" height="984"/></clipPath><clipPath id="clip70"><rect x="0" y="0" width="1993" height="984"/></clipPath><clipPath id="clip71"><rect x="0" y="0" width="1993" height="984"/></clipPath><clipPath id="clip72"><rect x="0" y="0" width="1993" height="984"/></clipPath><clipPath id="clip73"><rect x="0" y="0" width="1993" height="984"/></clipPath><clipPath id="clip74"><rect x="0" y="0" width="1993" height="984"/></clipPath><clipPath id="clip75"><rect x="0" y="0" width="1993" height="984"/></clipPath><clipPath id="clip76"><rect x="0" y="0" width="1993" height="984"/></clipPath><clipPath id="clip77"><rect x="0" y="0" width="1993" height="984"/></clipPath><clipPath id="clip78"><rect x="0" y="0" width="1993" height="984"/></clipPath><clipPath id="clip79"><rect x="0" y="0" width="1993" height="984"/></clipPath><clipPath id="clip80"><rect x="0" y="0" width="1993" height="984"/></clipPath><clipPath id="clip81"><rect x="0" y="0" width="1993" height="984"/></clipPath><clipPath id="clip82"><rect x="0" y="0" width="1993" height="984"/></clipPath><clipPath id="clip83"><rect x="0" y="0" width="1993" height="984"/></clipPath><clipPath id="clip84"><rect x="0" y="0" width="1993" height="984"/></clipPath><clipPath id="clip85"><rect x="0" y="0" width="1993" height="984"/></clipPath><clipPath id="clip86"><rect x="0" y="0" width="1993" height="984"/></clipPath><clipPath id="clip87"><rect x="0" y="0" width="1993" height="984"/></clipPath></defs><g clip-path="url(#clip11)" transform="translate(1 1)"><rect x="0" y="0" width="1994" height="984" fill="url(#fill12)"/><g clip-path="url(#clip13)"><path d="M948.531 129.5 948.531 890.5M1179.54 129.5 1179.54 890.5M1410.55 129.5 1410.55 890.5M1641.5 129.5 1641.5 890.5" stroke="#D9D9D9" stroke-width="3.4375" stroke-linejoin="round" stroke-miterlimit="10" fill="none"/></g><g clip-path="url(#clip14)"><g clip-path="url(#clip15)" filter="url(#fx0)" transform="translate(696 825)"><g clip-path="url(#clip16)"><rect x="21.0001" y="21.8751" width="856" height="32" fill="#FF0000"/></g></g></g><g clip-path="url(#clip17)"><g clip-path="url(#clip18)" filter="url(#fx1)" transform="translate(696 755)"><g clip-path="url(#clip19)"><rect x="21.0001" y="21.875" width="717" height="33" fill="#FF0000"/></g></g></g><g clip-path="url(#clip20)"><g clip-path="url(#clip21)" filter="url(#fx2)" transform="translate(696 686)"><g clip-path="url(#clip22)"><rect x="21.0001" y="21.8749" width="624" height="32" fill="#FF0000"/></g></g></g><g clip-path="url(#clip23)"><g clip-path="url(#clip24)" filter="url(#fx3)" transform="translate(696 617)"><g clip-path="url(#clip25)"><rect x="21.0001" y="21.8752" width="185" height="32" fill="#FF0000"/></g></g></g><g clip-path="url(#clip26)"><g clip-path="url(#clip27)" filter="url(#fx4)" transform="translate(696 548)"><g clip-path="url(#clip28)"><rect x="21.0001" y="21.8751" width="162" height="32" fill="#FF0000"/></g></g></g><g clip-path="url(#clip29)"><g clip-path="url(#clip30)" filter="url(#fx5)" transform="translate(696 479)"><g clip-path="url(#clip31)"><rect x="21.0001" y="21.875" width="162" height="32" fill="#FF0000"/></g></g></g><g clip-path="url(#clip32)"><g clip-path="url(#clip33)" filter="url(#fx6)" transform="translate(696 410)"><g clip-path="url(#clip34)"><rect x="21.0001" y="21.8749" width="139" height="32" fill="#FF0000"/></g></g></g><g clip-path="url(#clip35)"><g clip-path="url(#clip36)" filter="url(#fx7)" transform="translate(696 340)"><g clip-path="url(#clip37)"><rect x="21.0001" y="21.8751" width="139" height="33" fill="#FF0000"/></g></g></g><g clip-path="url(#clip38)"><g clip-path="url(#clip39)" filter="url(#fx8)" transform="translate(696 271)"><g clip-path="url(#clip40)"><rect x="21.0001" y="21.875" width="139" height="32" fill="#FF0000"/></g></g></g><g clip-path="url(#clip41)"><g clip-path="url(#clip42)" filter="url(#fx9)" transform="translate(696 202)"><g clip-path="url(#clip43)"><rect x="21.0001" y="21.8749" width="116" height="32" fill="#FF0000"/></g></g></g><g clip-path="url(#clip44)"><g clip-path="url(#clip45)" filter="url(#fx10)" transform="translate(696 133)"><g clip-path="url(#clip46)"><rect x="21.0001" y="21.8752" width="116" height="32" fill="#FF0000"/></g></g></g><g clip-path="url(#clip47)"><rect x="717" y="840" width="856" height="31.9999" fill="url(#fill48)"/></g><g clip-path="url(#clip49)"><rect x="717" y="770" width="717" height="33" fill="url(#fill50)"/></g><g clip-path="url(#clip51)"><rect x="717" y="701" width="624" height="31.9999" fill="url(#fill52)"/></g><g clip-path="url(#clip53)"><rect x="717" y="632" width="185" height="31.9999" fill="url(#fill54)"/></g><g clip-path="url(#clip55)"><rect x="717" y="563" width="162" height="31.9999" fill="url(#fill56)"/></g><g clip-path="url(#clip57)"><rect x="717" y="494" width="162" height="32" fill="url(#fill58)"/></g><g clip-path="url(#clip59)"><rect x="717" y="425" width="139" height="32" fill="url(#fill60)"/></g><g clip-path="url(#clip61)"><rect x="717" y="355" width="139" height="33" fill="url(#fill62)"/></g><g clip-path="url(#clip63)"><rect x="717" y="286" width="139" height="32" fill="url(#fill64)"/></g><g clip-path="url(#clip65)"><rect x="717" y="217" width="116" height="32" fill="url(#fill66)"/></g><g clip-path="url(#clip67)"><rect x="717" y="148" width="116" height="32" fill="url(#fill68)"/></g><g clip-path="url(#clip69)"><path d="M0 0 0.000360892 761" stroke="#D9D9D9" stroke-width="4.58333" stroke-linejoin="round" stroke-miterlimit="10" fill="none" fill-rule="evenodd" transform="matrix(1 0 0 -1 717.5 890.5)"/></g><g clip-path="url(#clip70)"><text fill="#595959" font-family="Calibri,Calibri_MSFontService,sans-serif" font-weight="400" font-size="41" transform="matrix(1 0 0 1 706.664 956)">0</text></g><g clip-path="url(#clip71)"><text fill="#595959" font-family="Calibri,Calibri_MSFontService,sans-serif" font-weight="400" font-size="41" transform="matrix(1 0 0 1 927.407 956)">10</text></g><g clip-path="url(#clip72)"><text fill="#595959" font-family="Calibri,Calibri_MSFontService,sans-serif" font-weight="400" font-size="41" transform="matrix(1 0 0 1 1158.6 956)">20</text></g><g clip-path="url(#clip73)"><text fill="#595959" font-family="Calibri,Calibri_MSFontService,sans-serif" font-weight="400" font-size="41" transform="matrix(1 0 0 1 1389.79 956)">30</text></g><g clip-path="url(#clip74)"><text fill="#595959" font-family="Calibri,Calibri_MSFontService,sans-serif" font-weight="400" font-size="41" transform="matrix(1 0 0 1 1620.99 956)">40</text></g><g clip-path="url(#clip75)"><text fill="#595959" font-family="Calibri,Calibri_MSFontService,sans-serif" font-weight="400" font-size="41" transform="matrix(1 0 0 1 482.036 867)">Soziologie</text></g><g clip-path="url(#clip76)"><text fill="#595959" font-family="Calibri,Calibri_MSFontService,sans-serif" font-weight="400" font-size="41" transform="matrix(1 0 0 1 479.585 798)">Pädagogik</text></g><g clip-path="url(#clip77)"><text fill="#595959" font-family="Calibri,Calibri_MSFontService,sans-serif" font-weight="400" font-size="41" transform="matrix(1 0 0 1 395.733 729)">Politikwissensch.</text></g><g clip-path="url(#clip78)"><text fill="#595959" font-family="Calibri,Calibri_MSFontService,sans-serif" font-weight="400" font-size="41" transform="matrix(1 0 0 1 494.092 660)">Geschichte</text></g><g clip-path="url(#clip79)"><text fill="#595959" font-family="Calibri,Calibri_MSFontService,sans-serif" font-weight="400" font-size="41" transform="matrix(1 0 0 1 514.212 591)">Deutsch</text></g><g clip-path="url(#clip80)"><text fill="#595959" font-family="Calibri,Calibri_MSFontService,sans-serif" font-weight="400" font-size="41" transform="matrix(1 0 0 1 475.323 521)">Informatik</text></g><g clip-path="url(#clip81)"><text fill="#595959" font-family="Calibri,Calibri_MSFontService,sans-serif" font-weight="400" font-size="41" transform="matrix(1 0 0 1 430.544 452)">Emp. Sprachw.</text></g><g clip-path="url(#clip82)"><text fill="#595959" font-family="Calibri,Calibri_MSFontService,sans-serif" font-weight="400" font-size="41" transform="matrix(1 0 0 1 486.414 383)">Geografie</text></g><g clip-path="url(#clip83)"><text fill="#595959" font-family="Calibri,Calibri_MSFontService,sans-serif" font-weight="400" font-size="41" transform="matrix(1 0 0 1 483.94 314)">Philosophie</text></g><g clip-path="url(#clip84)"><text fill="#595959" font-family="Calibri,Calibri_MSFontService,sans-serif" font-weight="400" font-size="41" transform="matrix(1 0 0 1 430.521 245)">Angl./Nordam.</text></g><g clip-path="url(#clip85)"><text fill="#595959" font-family="Calibri,Calibri_MSFontService,sans-serif" font-weight="400" font-size="41" transform="matrix(1 0 0 1 431.552 176)">Skandinavistik</text></g><g clip-path="url(#clip86)"><text fill="#595959" font-family="Calibri,Calibri_MSFontService,sans-serif" font-weight="400" font-size="64" transform="matrix(1 0 0 1 403.047 86)">Fachherkunft der Teilnehmenden </text></g><g clip-path="url(#clip87)"><text fill="#595959" font-family="Calibri,Calibri_MSFontService,sans-serif" font-weight="400" font-size="46" transform="matrix(1 0 0 1 1280.92 86)">(WS 22/23)</text></g><rect x="0.499836" y="0.499836" width="1994" height="984" stroke="#D9D9D9" stroke-width="3.4375" stroke-linejoin="round" stroke-miterlimit="10" fill="none"/></g></svg>