<svg height="284" viewBox="0 0 1069 284" width="1069" xmlns="http://www.w3.org/2000/svg"><g fill="none" fill-rule="evenodd"><g transform="translate(823.1765)"><path d="m163.656 0-163.656 283.461h163.656l81.828-141.731-81.827-141.73z" fill="#039999"/><path d="m163.656 0-81.828 141.73h163.656l-81.827-141.73z" fill="#007878"/><path d="m.0019 0 81.828 141.731 81.827-141.731z" fill="#8fd133"/></g><g fill="#fff"><path d="m289.4807 223.1225 37.254-57.015h-33.691v-13.282h53.235v9.502l-37.146 57.015h37.577v13.389h-57.229z"/><path d="m360.4191 196.7739v-43.948h15.981v45.352c0 16.63 5.723 22.244 15.118 22.244 9.502 0 15.549-5.614 15.549-22.244v-45.352h15.333v43.948c0 26.564-11.337 37.47-30.882 37.47-19.437 0-31.099-10.906-31.099-37.47"/><path d="m437.2951 152.8256h15.98v34.662h.326l26.455-34.662h17.6l-24.403 31.423 28.723 48.483h-17.602l-20.624-35.849-10.475 13.39v22.459h-15.98z"/><path d="m508.7727 196.7739v-43.948h15.981v45.352c0 16.63 5.724 22.244 15.118 22.244 9.502 0 15.549-5.614 15.549-22.244v-45.352h15.334v43.948c0 26.564-11.338 37.47-30.883 37.47-19.436 0-31.099-10.906-31.099-37.47"/><path d="m585.6496 152.8256h16.306l23.215 42.545 7.991 17.276h.54c-.864-8.314-2.052-18.895-2.052-27.966v-31.855h15.118v79.906h-16.197l-23.109-42.76-8.098-17.168h-.54c.756 8.637 1.944 18.679 1.944 27.858v32.07h-15.118z"/><path d="m662.2023 152.8256h49.24v13.282h-33.259v20.84h28.4v13.39h-28.4v32.394h-15.981z"/><path d="m747.717 166.1078h-22.459v-13.282h61.116v13.282h-22.676v66.624h-15.981z"/><path d="m17.925 125.1274c20.732 0 29.911-13.713 29.911-34.121 0-20.41-9.179-33.692-29.911-33.692h-11.446v67.813zm-17.925-73.211h18.573c24.188 0 36.066 15.01 36.066 39.09s-11.878 39.628-35.958 39.628h-18.681z"/><path d="m101.8224 98.9965-4.752-14.255c-3.24-9.179-5.831-17.491-8.638-26.994h-.432c-2.699 9.503-5.399 17.815-8.532 26.994l-4.858 14.255zm1.727 5.183h-30.666l-8.963 26.455h-6.479l27.535-78.718h6.695l27.536 78.718h-6.911z"/><path d="m134.967 57.4233h-24.728v-5.507h56.151v5.507h-24.836v73.211h-6.587z"/><path d="m174.5929 51.9164h43.517v5.507h-37.038v28.722h31.208v5.507h-31.208v33.368h38.226v5.614h-44.705z"/><path d="m225.2326 51.9164h6.911l14.146 45.243c2.915 9.503 4.966 16.845 8.098 26.349h.432c3.239-9.504 5.291-16.846 8.314-26.349l14.037-45.243h6.587l-25.59 78.718h-7.127z"/><path d="m286.3439 120.4848 9.179-11.014c5.722 5.291 13.282 8.855 20.3 8.855 8.315 0 12.743-3.564 12.743-9.179 0-5.94-4.86-7.775-11.988-10.799l-10.689-4.536c-8.099-3.346-16.197-9.825-16.197-21.487 0-13.067 11.446-23.108 27.643-23.108 9.286 0 18.573 3.672 25.052 10.259l-8.099 10.041c-5.075-4.21-10.366-6.587-16.953-6.587-7.018 0-11.554 3.132-11.554 8.424 0 5.722 5.723 7.775 12.526 10.474l10.474 4.427c9.718 3.995 16.089 10.15 16.089 21.704 0 13.065-10.906 24.188-29.371 24.188-10.689 0-21.38-4.212-29.155-11.662"/><path d="m372.7238 64.0102h-22.459v-13.282h61.116v13.282h-22.676v66.624h-15.981z"/><path d="m422.1751 130.6343h15.981v-79.906h-15.981z"/><path d="m449.1682 50.728h49.239v13.282h-33.259v20.841h28.4v13.389h-28.4v32.394h-15.98z"/><path d="m530.3644 64.0102h-22.46v-13.282h61.117v13.282h-22.677v66.624h-15.98z"/><path d="m579.384 94.6762v-43.948h15.98v45.352c0 16.629 5.724 22.245 15.119 22.245 9.502 0 15.549-5.616 15.549-22.245v-45.352h15.333v43.948c0 26.563-11.337 37.471-30.882 37.471-19.437 0-31.099-10.908-31.099-37.471"/><path d="m651.9406 50.728h16.306l23.215 42.544 7.991 17.278h.54c-.864-8.314-2.052-18.897-2.052-27.968v-31.854h15.118v79.906h-16.197l-23.109-42.76-8.098-17.169h-.539c.755 8.639 1.943 18.68 1.943 27.859v32.07h-15.118z"/><path d="m722.339 91.0063c0-26.348 17.061-41.789 38.333-41.789 11.555 0 19.545 4.967 24.729 10.259l-8.532 10.149c-3.887-3.778-8.423-6.695-15.656-6.695-13.282 0-22.568 10.367-22.568 27.536 0 17.385 7.99 27.859 23.647 27.859 3.888 0 7.775-1.08 10.042-3.023v-15.766h-14.145v-13.066h28.399v36.066c-5.399 5.29-14.794 9.611-25.916 9.611-21.812 0-38.333-14.471-38.333-41.141"/></g></g></svg>